<svg xmlns="http://www.w3.org/2000/svg" viewBox="0 0 1200 720">
  <defs>
    <linearGradient id="bg" x1="0" x2="1" y1="0" y2="1">
      <stop offset="0%" stop-color="#0b0b0b"/>
      <stop offset="100%" stop-color="#171717"/>
    </linearGradient>
    <linearGradient id="accent" x1="0" x2="1" y1="0" y2="0">
      <stop offset="0%" stop-color="#ff3b3b" stop-opacity="0.85"/>
      <stop offset="100%" stop-color="#ff3b3b" stop-opacity="0.1"/>
    </linearGradient>
  </defs>
  <rect width="1200" height="720" fill="url(#bg)"/>
  <g opacity="0.12" stroke="#ffffff">
    <path d="M0 120H1200"/>
    <path d="M0 260H1200"/>
    <path d="M0 400H1200"/>
    <path d="M0 540H1200"/>
    <path d="M180 0V720"/>
    <path d="M420 0V720"/>
    <path d="M660 0V720"/>
    <path d="M900 0V720"/>
  </g>
  <rect x="92" y="88" width="1016" height="544" rx="28" fill="#101010" stroke="#2c2c2c"/>
  <rect x="132" y="128" width="936" height="56" rx="14" fill="#141414" stroke="#2b2b2b"/>
  <circle cx="164" cy="156" r="8" fill="#ff3b3b"/>
  <circle cx="194" cy="156" r="8" fill="#3d3d3d"/>
  <circle cx="224" cy="156" r="8" fill="#3d3d3d"/>
  <rect x="132" y="216" width="340" height="284" rx="18" fill="#121212" stroke="#2a2a2a"/>
  <rect x="504" y="216" width="564" height="112" rx="18" fill="#121212" stroke="#2a2a2a"/>
  <rect x="504" y="352" width="564" height="148" rx="18" fill="#121212" stroke="#2a2a2a"/>
  <rect x="132" y="530" width="936" height="60" rx="18" fill="url(#accent)"/>
  <path d="M168 566H416" stroke="#ffffff" stroke-opacity="0.65" stroke-width="8" stroke-linecap="round"/>
  <path d="M540 264H790" stroke="#ffffff" stroke-opacity="0.65" stroke-width="8" stroke-linecap="round"/>
  <path d="M540 296H716" stroke="#ffffff" stroke-opacity="0.25" stroke-width="8" stroke-linecap="round"/>
  <path d="M540 400H924" stroke="#ffffff" stroke-opacity="0.65" stroke-width="8" stroke-linecap="round"/>
  <path d="M540 434H980" stroke="#ffffff" stroke-opacity="0.25" stroke-width="8" stroke-linecap="round"/>
  <path d="M540 468H880" stroke="#ffffff" stroke-opacity="0.25" stroke-width="8" stroke-linecap="round"/>
</svg>
